<mxfile host="app.diagrams.net" modified="2023-10-26T03:25:34.465Z" agent="Mozilla/5.0 (Macintosh; Intel Mac OS X 10_15_7) AppleWebKit/537.36 (KHTML, like Gecko) Chrome/116.0.0.0 Safari/537.36" version="22.0.8" etag="tHsGOFdSFe0kHrkx2u5j" type="github">
  <diagram name="Page-1" id="1BHzhy0nbax0xnrKGxvR">
    <mxGraphModel>
      <root>
        <mxCell id="0" />
        <mxCell id="1" parent="0" />
      </root>
    </mxGraphModel>
  </diagram>
</mxfile>
